<svg width="106" height="106" viewBox="0 0 106 106" fill="none" xmlns="http://www.w3.org/2000/svg">
<path d="M52.9996 47.4444H80.7773M52.9996 25.2222H80.7773M30.7773 69.6667V6.33333C30.7773 5.44928 31.1285 4.60143 31.7537 3.97631C32.3788 3.35119 33.2266 3 34.1107 3H99.6662C100.55 3 101.398 3.35119 102.023 3.97631C102.648 4.60143 103 5.44928 103 6.33333V80.7778C103 86.6715 100.658 92.3238 96.4908 96.4913C92.3233 100.659 86.671 103 80.7773 103" stroke="#C6C7D1" stroke-width="5" stroke-linecap="round" stroke-linejoin="round"/>
<path d="M14.1111 69.6666H55.2222C57.0611 69.6666 58.5722 71.15 58.7222 72.9833C59.4056 81.4166 62.8889 103 80.7778 103H19.6667C15.2464 103 11.0072 101.244 7.88155 98.1184C4.75595 94.9928 3 90.7536 3 86.3333V80.7777C3 77.8309 4.17063 75.0047 6.25437 72.921C8.33811 70.8373 11.1643 69.6666 14.1111 69.6666Z" stroke="#C6C7D1" stroke-width="5" stroke-linecap="round" stroke-linejoin="round"/>
</svg>
